<svg width="119" height="49" viewBox="0 0 119 49" fill="none" xmlns="http://www.w3.org/2000/svg">
<g clip-path="url(#clip0_0_47)">
<g clip-path="url(#clip1_0_47)">
<mask id="mask0_0_47" style="mask-type:luminance" maskUnits="userSpaceOnUse" x="0" y="-1" width="119" height="50">
<path d="M119 -0.000522504H0V48.9135H119V-0.000522504Z" fill="white"/>
</mask>
<g mask="url(#mask0_0_47)">
<path d="M50.694 41.9147H50.0718V43.2205H50.8805C51.3077 43.2205 51.7361 43.0725 51.7361 42.5597C51.7361 41.9915 51.161 41.9147 50.6954 41.9147H50.694Z" fill="#4298B5"/>
<path d="M37.7413 41.9147H37.1191V43.2205H37.9278C38.3549 43.2205 38.7835 43.0725 38.7835 42.5597C38.7835 41.9915 38.2082 41.9147 37.7427 41.9147H37.7413Z" fill="#4298B5"/>
<path d="M50.1217 38.7952C50.1217 38.7952 47.0707 38.5332 44.0025 38.5275C40.9273 38.5232 37.8335 38.7724 37.7794 38.7781C34.3198 39.1142 32.5729 40.8901 32.5615 43.6927C32.5473 46.5694 34.3654 48.3339 37.7552 48.633C37.8079 48.6372 40.876 48.8992 43.9399 48.9064C47.0208 48.9149 50.1004 48.6643 50.1004 48.6643C53.7294 48.4663 55.6315 46.672 55.6457 43.7426C55.66 40.7306 53.7066 39.053 50.1231 38.7966L50.1217 38.7952ZM38.0058 44.2453H37.1202V46.39H35.9072V40.8858H37.9517C39.0935 40.8858 40.0417 41.2504 40.0417 42.5577C40.0417 43.865 39.1633 44.2438 38.0058 44.2438V44.2453ZM43.312 43.6244C43.1497 43.5774 42.986 43.5461 42.8151 43.5461C41.9296 43.5461 41.8199 44.0587 41.8199 44.8135V46.3914H40.6539V42.6133H41.8199V43.2199H41.8356C42.0848 42.7614 42.4108 42.5192 42.9247 42.5192C43.0572 42.5192 43.2038 42.5278 43.3134 42.5592V43.6244H43.312ZM47.8893 46.3914H44.0111V40.8872H47.7498V42.0066H45.2241V43.0319H47.6103V44.1513H45.2241V45.2706H47.8893V46.39V46.3914ZM50.9574 44.2467H50.0719V46.3914H48.8588V40.8872H50.9033C52.0452 40.8872 52.9933 41.2518 52.9933 42.5592C52.9933 43.8665 52.1149 44.2453 50.9574 44.2453V44.2467Z" fill="#4298B5"/>
<path d="M57.3038 42.1484H57.8348V42.9359C58.0056 42.4816 58.2875 42.0715 58.7417 42.0715C59.3411 42.0715 59.8622 42.7893 59.8622 44.296V44.5181C59.8622 46.0077 59.3397 46.7425 58.7417 46.7425C58.289 46.7425 58.0056 46.331 57.8348 45.8867V47.7764H57.3038V42.147V42.1484ZM59.3226 44.501V44.313C59.3226 43.1923 59.0051 42.5671 58.5951 42.5671C58.185 42.5671 57.8163 43.1823 57.8163 44.2874V44.5267C57.8163 45.6304 58.1922 46.247 58.5951 46.247C58.998 46.247 59.3226 45.6218 59.3226 44.501Z" fill="#4298B5"/>
<path d="M60.4752 42.1474H61.0048V42.7797C61.1671 42.3781 61.4846 42.0605 61.9715 42.0947V42.7014H61.9544C61.4163 42.7014 61.0048 43.0517 61.0048 43.8051V46.6618H60.4752V42.1446V42.1474Z" fill="#4298B5"/>
<path d="M62.1236 44.501V44.3814C62.1236 42.8491 62.713 42.08 63.3978 42.08C64.0826 42.08 64.6037 42.8761 64.6037 44.3045V44.6463H62.6532C62.6873 45.7243 63.123 46.2299 63.6625 46.2299C63.9445 46.2299 64.1509 46.1445 64.4499 45.9479L64.5012 46.4606C64.1751 46.6571 63.9459 46.734 63.5857 46.734C62.8069 46.734 62.1236 45.9806 62.1236 44.501ZM64.0911 44.2019C64.0911 43.235 63.8092 42.5671 63.3978 42.5671C62.9863 42.5671 62.6788 43.1054 62.6532 44.2019H64.0897H64.0911Z" fill="#4298B5"/>
<path d="M65.1465 43.8332H66.9176V44.3644H65.1465V43.8332Z" fill="#4298B5"/>
<path d="M67.4391 44.501V44.3814C67.4391 42.8491 68.0286 42.08 68.7134 42.08C69.3981 42.08 69.9193 42.8761 69.9193 44.3045V44.6463H67.9688C68.0029 45.7243 68.4386 46.2299 68.9781 46.2299C69.26 46.2299 69.4665 46.1445 69.7654 45.9479L69.8167 46.4606C69.4921 46.6571 69.2615 46.734 68.9013 46.734C68.1225 46.734 67.4391 45.9806 67.4391 44.501ZM69.4067 44.2019C69.4067 43.235 69.1248 42.5671 68.7134 42.5671C68.3019 42.5671 67.9944 43.1054 67.9688 44.2019H69.4052H69.4067Z" fill="#4298B5"/>
<path d="M71.4425 43.8923L72.1102 42.1464H72.6483L71.75 44.3196L72.7081 46.6636H72.1514L71.4339 44.7653L70.715 46.6636H70.1768L71.1178 44.3367L70.228 42.1464H70.7762L71.4439 43.8923H71.4425Z" fill="#4298B5"/>
<path d="M73.2513 42.1484H73.7806V42.9359C73.9514 42.4816 74.2347 42.0715 74.6881 42.0715C75.2875 42.0715 75.808 42.7893 75.808 44.296V44.5181C75.808 46.0077 75.286 46.7425 74.6881 46.7425C74.2347 46.7425 73.9514 46.331 73.7806 45.8867V47.7764H73.2513V42.147V42.1484ZM75.2699 44.501V44.313C75.2699 43.1923 74.9524 42.5671 74.5428 42.5671C74.1325 42.5671 73.7638 43.1823 73.7638 44.2874V44.5267C73.7638 45.6304 74.1413 46.247 74.5428 46.247C74.9443 46.247 75.2699 45.6218 75.2699 44.501Z" fill="#4298B5"/>
<path d="M76.2747 44.4754V44.3472C76.2747 42.9174 76.8726 42.08 77.591 42.08C78.3101 42.08 78.9 42.9188 78.9 44.3472V44.4754C78.9 45.9038 78.3006 46.7425 77.583 46.7425C76.8653 46.7425 76.2747 45.9038 76.2747 44.4754ZM78.3612 44.4754V44.3387C78.3612 43.235 78.0195 42.5671 77.583 42.5671C77.1457 42.5671 76.804 43.235 76.804 44.3387V44.4754C76.804 45.579 77.1457 46.2541 77.583 46.2541C78.0195 46.2541 78.3612 45.5777 78.3612 44.4754Z" fill="#4298B5"/>
<path d="M79.2828 46.5112V45.9714C79.5989 46.1337 79.9077 46.2377 80.1807 46.2377C80.5239 46.2377 80.7889 46.0155 80.7889 45.6467V45.6382C80.7889 45.3562 80.6348 45.0827 80.1296 44.6029C79.5135 44.0204 79.274 43.653 79.274 43.1645V43.1474C79.274 42.4795 79.7697 42.0864 80.3691 42.0864C80.6589 42.0864 80.8728 42.1292 81.1137 42.2317V42.7701C80.8655 42.6504 80.6268 42.5821 80.3691 42.5821C80.0354 42.5821 79.7953 42.7871 79.7953 43.1303V43.1389C79.7953 43.4208 79.9405 43.6345 80.4625 44.1486C81.0794 44.7566 81.3101 45.1241 81.3101 45.6111V45.6282C81.3101 46.3047 80.7874 46.7233 80.188 46.7233C79.8551 46.7233 79.5726 46.6465 79.2813 46.5097L79.2828 46.5112Z" fill="#4298B5"/>
<path d="M81.7953 45.3819V42.1477H82.3253V45.288C82.3253 45.9203 82.5553 46.272 82.9583 46.272C83.3613 46.272 83.6774 45.8619 83.6774 45.2452V42.1477H84.2089V46.6651H83.6774V46.0413C83.5153 46.4101 83.2503 46.7433 82.7794 46.7433C82.18 46.7433 81.7953 46.2392 81.7953 45.3833V45.3819Z" fill="#4298B5"/>
<path d="M84.9721 42.1474H85.5014V42.7797C85.6635 42.3781 85.9811 42.0605 86.468 42.0947V42.7014H86.4512C85.9117 42.7014 85.5014 43.0517 85.5014 43.8051V46.6618H84.9721V42.1446V42.1474Z" fill="#4298B5"/>
<path d="M86.62 44.501V44.3814C86.62 42.8491 87.2099 42.08 87.8947 42.08C88.5795 42.08 89.1008 42.8761 89.1008 44.3045V44.6463H87.15C87.1844 45.7243 87.6195 46.2299 88.1597 46.2299C88.4415 46.2299 88.6474 46.1445 88.9467 45.9479L88.9978 46.4606C88.6737 46.6571 88.4415 46.734 88.0823 46.734C87.3041 46.734 86.62 45.9806 86.62 44.501ZM88.5883 44.2019C88.5883 43.235 88.3057 42.5671 87.8947 42.5671C87.483 42.5671 87.1756 43.1054 87.15 44.2019H88.5868H88.5883Z" fill="#4298B5"/>
<path d="M90.9722 42.1484H91.5037V42.9359C91.6745 42.4816 91.9563 42.0715 92.4104 42.0715C93.0083 42.0715 93.531 42.7893 93.531 44.296V44.5181C93.531 46.0077 93.0098 46.7425 92.4104 46.7425C91.9563 46.7425 91.6745 46.331 91.5037 45.8867V47.7764H90.9722V42.147V42.1484ZM92.9915 44.501V44.313C92.9915 43.1923 92.6754 42.5671 92.2636 42.5671C91.8526 42.5671 91.4847 43.1823 91.4847 44.2874V44.5267C91.4847 45.6304 91.8607 46.247 92.2636 46.247C92.6666 46.247 92.9915 45.6218 92.9915 44.501Z" fill="#4298B5"/>
<path d="M94.1431 42.1474H94.6731V42.7797C94.8352 42.3781 95.1528 42.0605 95.6397 42.0947V42.7014H95.6222C95.0841 42.7014 94.6731 43.0517 94.6731 43.8051V46.6618H94.1431V42.1446V42.1474Z" fill="#4298B5"/>
<path d="M95.8038 44.4754V44.3472C95.8038 42.9174 96.4017 42.08 97.1201 42.08C97.8392 42.08 98.4291 42.9188 98.4291 44.3472V44.4754C98.4291 45.9038 97.8297 46.7425 97.1121 46.7425C96.3944 46.7425 95.8038 45.9038 95.8038 44.4754ZM97.8903 44.4754V44.3387C97.8903 43.235 97.5486 42.5671 97.1121 42.5671C96.6747 42.5671 96.3331 43.235 96.3331 44.3387V44.4754C96.3331 45.579 96.6762 46.2541 97.1121 46.2541C97.5472 46.2541 97.8903 45.5777 97.8903 44.4754Z" fill="#4298B5"/>
<path d="M99.0308 42.1484H99.5623V42.9359C99.7331 42.4816 100.015 42.0715 100.469 42.0715C101.068 42.0715 101.59 42.7893 101.59 44.296V44.5181C101.59 46.0077 101.068 46.7425 100.469 46.7425C100.015 46.7425 99.7331 46.331 99.5623 45.8867V47.7764H99.0308V42.147V42.1484ZM101.05 44.501V44.313C101.05 43.1923 100.734 42.5671 100.322 42.5671C99.9112 42.5671 99.5433 43.1823 99.5433 44.2874V44.5267C99.5433 45.6304 99.9193 46.247 100.322 46.247C100.725 46.247 101.05 45.6218 101.05 44.501Z" fill="#4298B5"/>
<path d="M102.198 40.6242H102.73V42.7803C102.892 42.4043 103.157 42.0711 103.628 42.0711C104.227 42.0711 104.612 42.5752 104.612 43.4311V46.6652H104.08V43.5251C104.08 42.8928 103.85 42.541 103.447 42.541C103.044 42.541 102.728 42.9512 102.728 43.5763V46.6652H102.197V40.6256L102.198 40.6242Z" fill="#4298B5"/>
<path d="M107.119 42.1477H107.649L106.316 47.7772H105.794L106.083 46.5881L105.031 42.1477H105.569L106.34 45.6724L107.119 42.1477Z" fill="#4298B5"/>
<path d="M108.22 40.6242H108.759V46.6638H108.22V40.6242Z" fill="#4298B5"/>
<path d="M109.349 45.3641V45.2786C109.349 44.3885 109.776 43.8331 110.486 43.8331C110.769 43.8331 111 43.9101 111.206 44.004V43.5156C111.206 42.9346 110.931 42.6013 110.401 42.6013C110.102 42.6013 109.845 42.6697 109.589 42.8064V42.2922C109.854 42.1641 110.152 42.0957 110.461 42.0957C110.854 42.0957 111.153 42.2068 111.385 42.429C111.6 42.6426 111.736 43.0029 111.736 43.4643V46.6643H111.198V46.0576C111.018 46.4863 110.743 46.7426 110.333 46.7426C109.752 46.7426 109.349 46.1687 109.349 45.3655V45.3641ZM111.206 45.3128V44.4483C111.009 44.3544 110.795 44.286 110.581 44.286C110.119 44.286 109.87 44.6705 109.87 45.2445V45.3299C109.87 45.8952 110.092 46.2798 110.485 46.2798C110.914 46.2798 111.204 45.8269 111.204 45.3128H111.206Z" fill="#4298B5"/>
<path d="M113.507 43.8923L114.174 42.1464H114.713L113.814 44.3196L114.772 46.6636H114.215L113.498 44.7653L112.779 46.6636H112.241L113.182 44.3367L112.292 42.1464H112.84L113.508 43.8923H113.507Z" fill="#4298B5"/>
<path d="M115.344 40.6242H115.907V41.3248H115.344V40.6242ZM115.352 42.148H115.891V46.6652H115.352V42.148Z" fill="#4298B5"/>
<path d="M116.476 46.5112V45.9714C116.792 46.1337 117.101 46.2377 117.374 46.2377C117.716 46.2377 117.982 46.0155 117.982 45.6467V45.6382C117.982 45.3562 117.828 45.0827 117.323 44.6029C116.708 44.0204 116.467 43.653 116.467 43.1645V43.1474C116.467 42.4795 116.963 42.0864 117.562 42.0864C117.853 42.0864 118.067 42.1292 118.307 42.2317V42.7701C118.059 42.6504 117.82 42.5821 117.562 42.5821C117.229 42.5821 116.99 42.7871 116.99 43.1303V43.1389C116.99 43.4208 117.135 43.6345 117.658 44.1486C118.274 44.7566 118.505 45.1241 118.505 45.6111V45.6282C118.505 46.3047 117.983 46.7233 117.384 46.7233C117.051 46.7233 116.768 46.6465 116.477 46.5097L116.476 46.5112Z" fill="#4298B5"/>
<path d="M24.2895 42.5808H23.8581V42.1181H24.2895V41.6481C24.2895 41.2721 24.3892 40.9887 24.5771 40.8178C24.7479 40.6555 24.9899 40.5786 25.2861 40.5786C25.3943 40.5786 25.5196 40.5871 25.6008 40.6127V41.0913C25.5381 41.0741 25.4213 41.0656 25.3672 41.0656C25.0341 41.0656 24.8561 41.2621 24.8561 41.6994V42.1181H25.5652V42.5808H24.8561V46.6368H24.2895V42.5808Z" fill="#4298B5"/>
<path d="M26.014 44.4469V44.3187C26.014 42.8903 26.6434 42.0515 27.3979 42.0515C28.1525 42.0515 28.7718 42.8903 28.7718 44.3187V44.4469C28.7718 45.8767 28.1439 46.7141 27.3893 46.7141C26.6348 46.7141 26.0155 45.8752 26.0155 44.4469H26.014ZM28.2052 44.4469V44.3102C28.2052 43.2079 27.8463 42.54 27.3879 42.54C26.9295 42.54 26.5707 43.2079 26.5707 44.3102V44.4469C26.5707 45.5506 26.9295 46.2271 27.3879 46.2271C27.8463 46.2271 28.2052 45.5506 28.2052 44.4469Z" fill="#4298B5"/>
<path d="M29.6413 42.1188H30.198V42.7526C30.3688 42.351 30.7006 42.0334 31.2131 42.0676V42.6743H31.196C30.6294 42.6743 30.1994 43.0246 30.1994 43.778V46.6361H29.6427V42.1175L29.6413 42.1188Z" fill="#4298B5"/>
<path d="M24.2024 23.9798V24.2576C24.2024 25.478 24.4202 25.881 24.9327 25.881C25.347 25.881 25.5207 25.3911 25.589 24.9397L26.1016 25.0166C26.019 25.7656 25.5734 26.4578 24.8573 26.4578C24.0358 26.4578 23.6585 25.6702 23.6585 23.863C23.6585 22.0558 24.0358 21.2683 24.8573 21.2683C25.6788 21.2683 26.0561 22.2097 26.0561 23.6509V23.977H24.2024V23.9798ZM25.5136 23.4031C25.4979 22.3279 25.3485 21.8465 24.8573 21.8465C24.4643 21.8465 24.2081 22.2111 24.201 23.4031H25.5122H25.5136Z" fill="#6D6E71"/>
<path d="M26.7782 26.3624V21.3666H27.2765V21.9135C27.4873 21.5959 27.8119 21.2698 28.1892 21.2698C28.4981 21.2698 28.7928 21.529 28.8896 21.9035C29.1089 21.5959 29.4178 21.2698 29.8022 21.2698C30.3147 21.2698 30.5938 21.7126 30.5938 22.4233V26.3624H30.0514V22.5187C30.0514 22.0004 29.9304 21.8465 29.6442 21.8465C29.3124 21.8465 29.1245 22.1442 28.958 22.3649V26.3624H28.4155V22.5187C28.4155 22.0004 28.2717 21.8465 27.9855 21.8465C27.6538 21.8465 27.4659 22.1442 27.3221 22.3649V26.3624H26.7796H26.7782Z" fill="#6D6E71"/>
<path d="M31.1584 21.3661H31.6866V19.6942H32.2291V21.3661H32.9523V21.9428H32.2291V25.4404C32.2291 25.7281 32.3501 25.9403 32.622 25.9403C32.7273 25.9403 32.8626 25.8833 32.9537 25.8448V26.3633C32.8028 26.4216 32.6675 26.4601 32.4412 26.4601C31.9286 26.4601 31.6866 26.1525 31.6866 25.3848V21.9457H31.1584V21.3689V21.3661Z" fill="#6D6E71"/>
<path d="M33.5597 21.3666H34.1022V21.9718H34.1164C34.441 21.3666 34.6816 21.2698 35.1115 21.2698V21.9234C34.7044 21.9234 34.3954 22.0972 34.1022 22.8078V26.3624H33.5597V21.3666Z" fill="#6D6E71"/>
<path d="M35.6532 19.4268H36.1956V20.2343H35.6532V19.4268ZM35.6532 21.3678H36.1956V26.3636H35.6532V21.3678Z" fill="#6D6E71"/>
<path d="M38.719 22.8463C38.6662 22.0972 38.4328 21.8465 38.101 21.8465C37.6412 21.8465 37.4447 22.2111 37.4447 23.8645C37.4447 25.5179 37.6412 25.8825 38.101 25.8825C38.447 25.8825 38.6435 25.6518 38.7346 24.7873H39.2614C39.1703 25.7671 38.8086 26.4578 38.101 26.4578C37.2796 26.4578 36.9023 25.6702 36.9023 23.863C36.9023 22.0558 37.2796 21.2683 38.101 21.2683C38.8101 21.2683 39.1403 21.865 39.2472 22.8448H38.719V22.8463Z" fill="#6D6E71"/>
<path d="M39.9365 19.4268H40.4789V20.2343H39.9365V19.4268ZM39.9365 21.3678H40.4789V26.3636H39.9365V21.3678Z" fill="#6D6E71"/>
<path d="M41.0331 21.3661H41.5613V19.6942H42.1037V21.3661H42.8269V21.9428H42.1037V25.4404C42.1037 25.7281 42.2247 25.9403 42.4953 25.9403C42.6006 25.9403 42.7373 25.8833 42.8269 25.8448V26.3633C42.676 26.4216 42.5408 26.4601 42.3144 26.4601C41.8019 26.4601 41.5599 26.1525 41.5599 25.3848V21.9457H41.0317V21.3689L41.0331 21.3661Z" fill="#6D6E71"/>
<path d="M43.431 22.7309C43.5364 21.9433 43.898 21.2698 44.5914 21.2698C45.2847 21.2698 45.7146 21.8081 45.7146 22.6925V25.4794C45.7146 25.9223 45.7531 26.2484 45.8129 26.3624H45.2477L45.1794 25.9394C44.9687 26.2086 44.5914 26.4578 44.3422 26.4578C43.7314 26.4578 43.3243 25.9579 43.3243 25.1704C43.3243 23.9414 44.3864 23.3162 45.1708 23.0954V22.7395C45.1708 22.1911 44.9516 21.8451 44.6056 21.8451C44.1913 21.8451 43.9877 22.3734 43.9279 22.8249L43.431 22.728V22.7309ZM45.1722 23.6722C44.6753 23.8645 43.8681 24.3259 43.8681 25.1134C43.8681 25.5833 44.0332 25.8825 44.4262 25.8825C44.7209 25.8825 44.9772 25.6233 45.1722 25.364V23.6737V23.6722Z" fill="#6D6E71"/>
<path d="M46.9869 26.3622H46.564C46.6239 26.0745 46.6538 25.6701 46.6538 25.0178V19.4268H47.1962V21.7324C47.377 21.5017 47.6262 21.271 47.9195 21.271C48.5373 21.271 49.0513 21.9446 49.0513 23.8657C49.0513 25.7868 48.5388 26.4604 47.9195 26.4604C47.5735 26.4604 47.3015 26.2397 47.1051 25.8837L46.984 26.3636L46.9869 26.3622ZM47.1977 25.4009C47.3642 25.6886 47.6048 25.8808 47.7714 25.8808C48.2227 25.8808 48.5103 25.4009 48.5103 23.8629C48.5103 22.3249 48.2469 21.8449 47.787 21.8449C47.5464 21.8449 47.3571 22.0856 47.199 22.2864V25.3995L47.1977 25.4009Z" fill="#6D6E71"/>
<path d="M49.8092 19.4268H50.3517V20.2343H49.8092V19.4268ZM49.8092 21.3678H50.3517V26.3636H49.8092V21.3678Z" fill="#6D6E71"/>
<path d="M51.2353 21.3666H51.7478V21.9135C52.0042 21.5774 52.3815 21.2698 52.6377 21.2698C53.1802 21.2698 53.4962 21.6542 53.4962 22.5771V26.3624H52.9538V22.6725C52.9538 22.0972 52.8185 21.8465 52.5238 21.8465C52.2604 21.8465 52.0184 22.0772 51.7778 22.4618V26.3624H51.2353V21.3666Z" fill="#6D6E71"/>
<path d="M54.7337 23.9798V24.2576C54.7337 25.478 54.9529 25.881 55.4641 25.881C55.8784 25.881 56.0521 25.3911 56.1205 24.9397L56.633 25.0166C56.5489 25.7656 56.1048 26.4578 55.3886 26.4578C54.5672 26.4578 54.1899 25.6702 54.1899 23.863C54.1899 22.0558 54.5657 21.2683 55.3886 21.2683C56.2116 21.2683 56.5874 22.2097 56.5874 23.6509V23.977H54.7337V23.9798ZM56.045 23.4031C56.0293 22.3279 55.8798 21.8465 55.3886 21.8465C54.9957 21.8465 54.7394 22.2111 54.7323 23.4031H56.0436H56.045Z" fill="#6D6E71"/>
<path d="M58.2509 26.3635V25.7868C58.7336 23.7303 60.2413 22.5782 60.2413 21.0017C60.2413 20.2711 59.9551 19.9066 59.5849 19.9066C59.1549 19.9066 58.8389 20.3295 58.7933 21.3677H58.2965C58.3563 19.7913 58.9143 19.3298 59.5706 19.3298C60.2868 19.3298 60.7851 19.945 60.7851 21.0986C60.7851 22.8274 59.5636 23.3657 58.7492 25.7868H60.815V26.3635H58.2523H58.2509Z" fill="#6D6E71"/>
<path d="M62.7842 26.4589C61.8944 26.4589 61.473 25.4022 61.473 22.8944C61.473 20.3865 61.8958 19.3298 62.7842 19.3298C63.6726 19.3298 64.0955 20.388 64.0955 22.8944C64.0955 25.4008 63.674 26.4589 62.7842 26.4589ZM62.7842 19.9066C62.286 19.9066 62.0154 20.6187 62.0154 22.8958C62.0154 25.1729 62.2874 25.8836 62.7842 25.8836C63.2811 25.8836 63.5531 25.1729 63.5531 22.8958C63.5531 20.6187 63.2811 19.9066 62.7842 19.9066Z" fill="#6D6E71"/>
<path d="M66.1209 26.4589C65.2311 26.4589 64.8096 25.4022 64.8096 22.8944C64.8096 20.3865 65.2325 19.3298 66.1209 19.3298C67.0093 19.3298 67.4321 20.388 67.4321 22.8944C67.4321 25.4008 67.0108 26.4589 66.1209 26.4589ZM66.1209 19.9066C65.624 19.9066 65.3521 20.6187 65.3521 22.8958C65.3521 25.1729 65.6226 25.8836 66.1209 25.8836C66.6192 25.8836 66.8897 25.1729 66.8897 22.8958C66.8897 20.6187 66.6178 19.9066 66.1209 19.9066Z" fill="#6D6E71"/>
<path d="M75.7569 26.4589L77.5046 19.3298H78.0018L76.2533 26.4589H75.7554H75.7569Z" fill="#6D6E71"/>
<path d="M68.249 26.356V21.3602H68.7459V21.9071C68.9566 21.5895 69.2812 21.2634 69.6585 21.2634C69.9675 21.2634 70.2622 21.5225 70.359 21.8971C70.5782 21.5895 70.8872 21.2634 71.2716 21.2634C71.7841 21.2634 72.0632 21.7062 72.0632 22.4155V26.3545H71.5207V22.5109C71.5207 21.9925 71.3997 21.8386 71.1136 21.8386C70.7818 21.8386 70.5939 22.1363 70.4273 22.3571V26.3545H69.8849V22.5109C69.8849 21.9925 69.7411 21.8386 69.4549 21.8386C69.1232 21.8386 68.9352 22.1363 68.7915 22.3571V26.3545H68.249V26.356Z" fill="#6D6E71"/>
<path d="M75.4667 21.8971C75.4068 21.8771 75.3615 21.8771 75.309 21.8771C75.1651 21.8771 75.068 21.954 74.9702 22.0694C75.0454 22.377 75.0907 22.6262 75.0907 23.0307C75.0907 24.2796 74.638 24.8179 74.0357 24.8179C73.9153 24.8179 73.7955 24.7795 73.6744 24.7795C73.5831 24.8093 73.4028 24.9148 73.4028 25.1056C73.4028 25.4616 73.8481 25.4816 74.3519 25.6154C74.9177 25.7692 75.4228 25.9999 75.4228 26.8159C75.4228 27.4696 74.9257 27.9879 74.0956 27.9879C73.2057 27.9879 72.7546 27.565 72.7546 26.9113C72.7546 26.4699 72.9725 26.1039 73.3269 25.9117C73.0932 25.8148 72.9041 25.5755 72.9041 25.238C72.9041 24.8635 73.1604 24.6328 73.4166 24.5758C73.1078 24.2967 72.9497 23.663 72.9497 23.1446C72.9497 21.9526 73.4013 21.2619 74.0876 21.2619C74.3438 21.2619 74.6753 21.4057 74.8038 21.7233C74.9242 21.4542 75.1352 21.2619 75.4667 21.2619V21.8957V21.8971ZM73.778 26.0868C73.4612 26.2605 73.2502 26.4898 73.2502 26.769C73.2502 27.182 73.5203 27.4696 74.1087 27.4696C74.6964 27.4696 74.9228 27.162 74.9228 26.759C74.9228 26.2976 74.2438 26.2207 73.7766 26.0868H73.778ZM74.0189 24.2995C74.3365 24.2995 74.5913 23.992 74.5913 23.0406C74.5913 22.0893 74.3351 21.7817 74.0189 21.7817C73.7028 21.7817 73.4466 22.0893 73.4466 23.0406C73.4466 23.992 73.7028 24.2995 74.0189 24.2995Z" fill="#6D6E71"/>
<path d="M23.6585 31.2019H24.1867V29.53H24.7292V31.2019H25.4524V31.7787H24.7292V35.2763C24.7292 35.5639 24.8501 35.7762 25.1221 35.7762C25.2274 35.7762 25.3641 35.7192 25.4538 35.6808V36.1991C25.3029 36.2575 25.1676 36.296 24.9413 36.296C24.4288 36.296 24.1867 35.9883 24.1867 35.2207V31.7815H23.6585V31.2048V31.2019Z" fill="#6D6E71"/>
<path d="M26.3726 33.8157V34.0934C26.3726 35.3138 26.5919 35.7169 27.1044 35.7169C27.5187 35.7169 27.6924 35.227 27.7608 34.7755L28.2733 34.8524C28.1907 35.6015 27.7465 36.2936 27.0304 36.2936C26.2089 36.2936 25.8316 35.5061 25.8316 33.6989C25.8316 31.8917 26.2074 31.1042 27.0304 31.1042C27.8533 31.1042 28.2291 32.0455 28.2291 33.4867V33.8128H26.3755L26.3726 33.8157ZM27.6838 33.2389C27.6682 32.1637 27.5187 31.6823 27.0275 31.6823C26.636 31.6823 26.3797 32.0469 26.3712 33.2389H27.6824H27.6838Z" fill="#6D6E71"/>
<path d="M28.9228 31.2025H29.4353V31.7493C29.6917 31.4133 30.069 31.1056 30.3252 31.1056C30.8677 31.1056 31.1852 31.4901 31.1852 32.4129V36.1982H30.6427V32.5084C30.6427 31.9331 30.5074 31.6824 30.2127 31.6824C29.9493 31.6824 29.7073 31.9131 29.4667 32.2976V36.1982H28.9242V31.2025H28.9228Z" fill="#6D6E71"/>
<path d="M33.0761 31.1056C33.8976 31.1056 34.2749 31.8931 34.2749 33.7003C34.2749 35.5075 33.8976 36.2951 33.0761 36.2951C32.2546 36.2951 31.8774 35.5075 31.8774 33.7003C31.8774 31.8931 32.2546 31.1056 33.0761 31.1056ZM33.0761 35.7183C33.536 35.7183 33.7325 35.3538 33.7325 33.7003C33.7325 32.047 33.536 31.6824 33.0761 31.6824C32.6163 31.6824 32.4198 32.047 32.4198 33.7003C32.4198 35.3538 32.6163 35.7183 33.0761 35.7183Z" fill="#6D6E71"/>
<path d="M34.6092 31.2022H35.2115V30.1839C35.2115 29.5117 35.4222 29.1657 36.0101 29.1657C36.154 29.1657 36.3049 29.1942 36.433 29.2241V29.7624C36.3347 29.7054 36.2365 29.6855 36.1383 29.6855C35.8749 29.6855 35.7539 29.8963 35.7539 30.2138V31.2036H36.3874V31.7803H35.7539V36.1994H35.2115V31.7803H34.6092V31.2036V31.2022Z" fill="#6D6E71"/>
<path d="M37.9353 31.1056C38.7568 31.1056 39.1341 31.8931 39.1341 33.7003C39.1341 35.5075 38.7568 36.2951 37.9353 36.2951C37.1138 36.2951 36.7365 35.5075 36.7365 33.7003C36.7365 31.8931 37.1138 31.1056 37.9353 31.1056ZM37.9353 35.7183C38.3952 35.7183 38.5916 35.3538 38.5916 33.7003C38.5916 32.047 38.3952 31.6824 37.9353 31.6824C37.4754 31.6824 37.279 32.047 37.279 33.7003C37.279 35.3538 37.4741 35.7183 37.9353 35.7183Z" fill="#6D6E71"/>
<path d="M39.9783 31.2026L40.7627 35.5063H40.777L41.5458 31.2026H42.0882L41.1229 36.1984H40.3997L39.4344 31.2026H39.9768H39.9783Z" fill="#6D6E71"/>
<path d="M42.6796 29.2612H43.222V30.0687H42.6796V29.2612ZM42.6796 31.2023H43.222V36.1981H42.6796V31.2023Z" fill="#6D6E71"/>
<path d="M44.0885 31.2025H44.6309V31.8077H44.6466C44.9698 31.2025 45.2118 31.1056 45.6418 31.1056V31.7593C45.2346 31.7593 44.9256 31.9331 44.6324 32.6436V36.1982H44.0899V31.2025H44.0885Z" fill="#6D6E71"/>
<path d="M47.555 32.5668C47.6604 31.7792 48.022 31.1056 48.7153 31.1056C49.4087 31.1056 49.8387 31.644 49.8387 32.5283V35.3153C49.8387 35.7582 49.8771 36.0843 49.9369 36.1982H49.3717L49.3033 35.7753C49.0926 36.0444 48.7153 36.2936 48.4662 36.2936C47.8554 36.2936 47.4482 35.7938 47.4482 35.0063C47.4482 33.7773 48.5117 33.1521 49.2948 32.9314V32.5753C49.2948 32.027 49.0755 31.681 48.7296 31.681C48.3153 31.681 48.1117 32.2093 48.0519 32.6608L47.5536 32.5639L47.555 32.5668ZM49.2962 33.5081C48.7994 33.7003 47.9921 34.1618 47.9921 34.9493C47.9921 35.4193 48.1573 35.7183 48.5502 35.7183C48.8435 35.7183 49.0998 35.4591 49.2962 35.1999V33.5096V33.5081Z" fill="#6D6E71"/>
<path d="M50.7505 29.2612H51.2929V36.1981H50.7505V29.2612Z" fill="#6D6E71"/>
<path d="M52.1049 32.5668C52.2103 31.7792 52.5718 31.1056 53.2666 31.1056C53.9614 31.1056 54.3899 31.644 54.3899 32.5283V35.3153C54.3899 35.7582 54.4284 36.0843 54.4882 36.1982H53.923L53.8546 35.7753C53.6439 36.0444 53.2666 36.2936 53.0175 36.2936C52.4067 36.2936 51.9996 35.7938 51.9996 35.0063C51.9996 33.7773 53.0616 33.1521 53.8461 32.9314V32.5753C53.8461 32.027 53.6282 31.681 53.2809 31.681C52.8666 31.681 52.663 32.2093 52.6032 32.6608L52.1049 32.5639V32.5668ZM53.8461 33.5081C53.3492 33.7003 52.542 34.1618 52.542 34.9493C52.542 35.4193 52.7071 35.7183 53.1 35.7183C53.3948 35.7183 53.651 35.4591 53.8461 35.1999V33.5096V33.5081Z" fill="#6D6E71"/>
<path d="M54.9541 31.2022H55.5578V30.1839C55.5578 29.5117 55.7685 29.1657 56.3565 29.1657C56.5003 29.1657 56.6498 29.1942 56.7793 29.2241V29.7624C56.6811 29.7054 56.5829 29.6855 56.4846 29.6855C56.2213 29.6855 56.1002 29.8963 56.1002 30.2138V31.2036H56.7324V31.7803H56.1002V36.1994H55.5578V31.7803H54.9541V31.2036V31.2022Z" fill="#6D6E71"/>
<path d="M57.6253 33.8157V34.0934C57.6253 35.3138 57.8432 35.7169 58.3557 35.7169C58.77 35.7169 58.9437 35.227 59.0121 34.7755L59.5246 34.8524C59.4406 35.6015 58.9964 36.2936 58.2802 36.2936C57.4573 36.2936 57.0815 35.5061 57.0815 33.6989C57.0815 31.8917 57.4573 31.1042 58.2802 31.1042C59.1032 31.1042 59.479 32.0455 59.479 33.4867V33.8128H57.6253V33.8157ZM58.9366 33.2389C58.9209 32.1637 58.7714 31.6823 58.2802 31.6823C57.8887 31.6823 57.631 32.0469 57.6253 33.2389H58.9366Z" fill="#6D6E71"/>
<path d="M60.1727 31.2025H60.6852V31.7493C60.9416 31.4133 61.3188 31.1056 61.5751 31.1056C62.1175 31.1056 62.4351 31.4901 62.4351 32.4129V36.1982H61.8926V32.5084C61.8926 31.9331 61.7573 31.6824 61.4626 31.6824C61.1992 31.6824 60.9572 31.9131 60.7166 32.2976V36.1982H60.1741V31.2025H60.1727Z" fill="#6D6E71"/>
<path d="M63.2268 32.5668C63.3321 31.7792 63.6938 31.1056 64.3871 31.1056C65.0804 31.1056 65.5104 31.644 65.5104 32.5283V35.3153C65.5104 35.7582 65.5488 36.0843 65.6086 36.1982H65.0434L64.9751 35.7753C64.7644 36.0444 64.3871 36.2936 64.1379 36.2936C63.5271 36.2936 63.1214 35.7938 63.1214 35.0063C63.1214 33.7773 64.1835 33.1521 64.968 32.9314V32.5753C64.968 32.027 64.7501 31.681 64.4028 31.681C63.9885 31.681 63.7849 32.2093 63.7251 32.6608L63.2268 32.5639V32.5668ZM64.968 33.5081C64.4711 33.7003 63.6653 34.1618 63.6653 34.9493C63.6653 35.4193 63.8304 35.7183 64.2234 35.7183C64.5167 35.7183 64.7729 35.4591 64.9694 35.1999V33.5096L64.968 33.5081Z" fill="#6D6E71"/>
<path d="M66.4408 36.1982V31.2025H66.9392V31.7493C67.1499 31.4317 67.4744 31.1056 67.8517 31.1056C68.1607 31.1056 68.4554 31.3648 68.5522 31.7394C68.7701 31.4317 69.079 31.1056 69.4634 31.1056C69.9759 31.1056 70.2564 31.5485 70.2564 32.2592V36.1982H69.7125V32.3546C69.7125 31.8362 69.5929 31.6824 69.3054 31.6824C68.9736 31.6824 68.7857 31.98 68.6191 32.2008V36.1982H68.0767V32.3546C68.0767 31.8362 67.9329 31.6824 67.6467 31.6824C67.315 31.6824 67.1271 31.98 66.9833 32.2008V36.1982H66.4408Z" fill="#6D6E71"/>
<path d="M71.1805 29.2612H71.7229V30.0687H71.1805V29.2612ZM71.1805 31.2023H71.7229V36.1981H71.1805V31.2023Z" fill="#6D6E71"/>
<path d="M74.4286 35.7181H74.4133C74.225 36.0742 73.9534 36.2949 73.6059 36.2949C72.9893 36.2949 72.4753 35.6227 72.4753 33.7002C72.4753 31.7776 72.9879 31.1055 73.6059 31.1055C73.9008 31.1055 74.1483 31.3361 74.3294 31.5668V29.2612H74.8725V34.8523C74.8725 35.5059 74.9025 35.909 74.9623 36.1966H74.4498L74.4272 35.7167L74.4286 35.7181ZM74.3301 32.1251C74.1739 31.9229 73.9848 31.6836 73.7424 31.6836C73.2825 31.6836 73.0189 32.1635 73.0189 33.7015C73.0189 35.2396 73.3051 35.7195 73.7585 35.7195C73.9249 35.7195 74.1651 35.5273 74.3301 35.2396V32.1265V32.1251Z" fill="#6D6E71"/>
<path d="M76.1247 33.8157V34.0934C76.1247 35.3138 76.343 35.7169 76.857 35.7169C77.2709 35.7169 77.4447 35.227 77.5133 34.7755L78.0258 34.8524C77.9433 35.6015 77.4987 36.2936 76.7825 36.2936C75.9597 36.2936 75.5838 35.5061 75.5838 33.6989C75.5838 31.8917 75.9612 31.1042 76.7825 31.1042C77.6046 31.1042 77.9813 32.0455 77.9813 33.4867V33.8128H76.1277L76.1247 33.8157ZM77.4359 33.2389C77.4221 32.1637 77.2709 31.6823 76.7811 31.6823C76.3898 31.6823 76.132 32.0469 76.1247 33.2389H77.4359Z" fill="#6D6E71"/>
<path d="M79.7648 36.1979V35.6212C80.2473 33.5647 81.7549 32.4126 81.7549 30.8361C81.7549 30.1056 81.4687 29.741 81.1001 29.741C80.67 29.741 80.3539 30.164 80.3087 31.2022H79.8115C79.8714 29.6257 80.4299 29.1642 81.0862 29.1642C81.8016 29.1642 82.2988 29.7794 82.2988 30.933C82.2988 32.6619 81.0774 33.2001 80.2627 35.6212H82.3287V36.1979H79.7662H79.7648Z" fill="#6D6E71"/>
<path d="M83.4815 34.5838C83.5268 35.0822 83.6918 35.7174 84.1743 35.7174C84.6569 35.7174 84.9891 35.1022 84.9891 33.9017C84.9891 32.6057 84.643 32.2013 84.243 32.2013C83.9342 32.2013 83.648 32.4989 83.5567 32.8734L83.134 32.7766L83.3143 29.2591H85.2293L85.184 29.8358H83.7516L83.6465 31.9507C83.8341 31.7484 84.0904 31.6231 84.3693 31.6231C85.003 31.6231 85.5301 32.3722 85.5301 33.8817C85.5301 35.4668 84.9278 36.2928 84.2028 36.2928C83.4187 36.2928 83.0267 35.5436 82.9814 34.6408L83.4801 34.5838H83.4815Z" fill="#6D6E71"/>
<path d="M86.3294 36.1975V31.2018H86.8266V31.7486C87.0368 31.431 87.3617 31.1049 87.7391 31.1049C88.048 31.1049 88.3414 31.3641 88.4393 31.7386C88.6583 31.431 88.9678 31.1049 89.3518 31.1049C89.8643 31.1049 90.1432 31.5478 90.1432 32.257V36.1961H89.6008V32.3524C89.6008 31.8341 89.4803 31.6802 89.1941 31.6802C88.862 31.6802 88.6743 31.9779 88.5079 32.1987V36.1961H87.9655V32.3524C87.9655 31.8341 87.8216 31.6802 87.5354 31.6802C87.2033 31.6802 87.0156 31.9779 86.8718 32.1987V36.1961H86.3294V36.1975Z" fill="#6D6E71"/>
<path d="M93.5476 31.74C93.4878 31.7201 93.4425 31.7201 93.3892 31.7201C93.2454 31.7201 93.149 31.7971 93.0505 31.9124C93.1264 32.22 93.1717 32.4692 93.1717 32.8737C93.1717 34.1226 92.7205 34.6609 92.1167 34.6609C91.9955 34.6609 91.8758 34.6225 91.7553 34.6225C91.6655 34.6524 91.483 34.7577 91.483 34.9486C91.483 35.3046 91.9291 35.3246 92.4328 35.4584C92.9979 35.6122 93.5031 35.8429 93.5031 36.659C93.5031 37.3112 93.0067 37.831 92.1766 37.831C91.2866 37.831 90.8355 37.408 90.8355 36.7544C90.8355 36.3128 91.053 35.9469 91.4093 35.7546C91.1742 35.6578 90.9866 35.4185 90.9866 35.081C90.9866 34.7065 91.2428 34.4758 91.4991 34.4188C91.1895 34.1397 91.0318 33.506 91.0318 32.9876C91.0318 31.7956 91.483 31.1049 92.1693 31.1049C92.4255 31.1049 92.7577 31.2488 92.8855 31.5664C93.0067 31.2972 93.2169 31.1049 93.5491 31.1049V31.7386L93.5476 31.74ZM91.859 35.9298C91.5429 36.1035 91.3319 36.3328 91.3319 36.6119C91.3319 37.0249 91.6028 37.3126 92.1905 37.3126C92.7789 37.3126 93.0052 37.005 93.0052 36.6019C93.0052 36.1405 92.3262 36.0637 91.859 35.9298ZM92.0999 34.1425C92.416 34.1425 92.6723 33.8349 92.6723 32.8836C92.6723 31.9323 92.416 31.6247 92.0999 31.6247C91.7838 31.6247 91.5276 31.9323 91.5276 32.8836C91.5276 33.8349 91.7838 34.1425 92.0999 34.1425Z" fill="#6D6E71"/>
<path d="M95.5525 31.2019H96.0803V29.53H96.6228V31.2019H97.3463V31.7787H96.6228V35.2748C96.6228 35.5639 96.744 35.7747 97.0148 35.7747C97.1199 35.7747 97.255 35.7178 97.3463 35.6779V36.1977C97.1951 36.2547 97.0601 36.2931 96.8338 36.2931C96.3213 36.2931 96.0803 35.9855 96.0803 35.2164V31.7773H95.5525V31.2005V31.2019Z" fill="#6D6E71"/>
<path d="M97.9549 32.566C98.0601 31.7785 98.4214 31.1063 99.1165 31.1063C99.8115 31.1063 100.24 31.6447 100.24 32.529V35.3145C100.24 35.7575 100.277 36.0836 100.338 36.1989H99.7728L99.7056 35.7759C99.4954 36.0451 99.1179 36.2944 98.869 36.2944C98.2579 36.2944 97.8505 35.7945 97.8505 35.007C97.8505 33.778 98.9142 33.1528 99.6976 32.9321V32.576C99.6976 32.0291 99.4793 31.6831 99.1318 31.6831C98.7178 31.6831 98.5142 32.2114 98.4528 32.6629L97.9549 32.566ZM99.6961 33.5074C99.199 33.6997 98.3915 34.161 98.3915 34.9486C98.3915 35.42 98.5572 35.7176 98.95 35.7176C99.2428 35.7176 99.4997 35.4584 99.6961 35.1992V33.5088V33.5074Z" fill="#6D6E71"/>
<path d="M101.508 36.1981H101.085C101.145 35.909 101.175 35.5059 101.175 34.8523V29.2598H101.717V31.5654C101.897 31.3347 102.147 31.104 102.44 31.104C103.058 31.104 103.571 31.7762 103.571 33.6973C103.571 35.6184 103.058 36.292 102.44 36.292C102.095 36.292 101.822 36.0713 101.626 35.7153L101.506 36.1966L101.508 36.1981ZM101.719 35.2368C101.885 35.5244 102.125 35.7167 102.292 35.7167C102.744 35.7167 103.031 35.2368 103.031 33.6987C103.031 32.1607 102.768 31.6808 102.308 31.6808C102.068 31.6808 101.879 31.9201 101.72 32.1222V35.2353L101.719 35.2368Z" fill="#6D6E71"/>
<path d="M104.33 29.2612H104.872V36.1994H104.33V29.2612Z" fill="#6D6E71"/>
<path d="M106.12 33.8136V34.0927C106.12 35.3132 106.34 35.7162 106.852 35.7162C107.266 35.7162 107.44 35.2263 107.509 34.7748L108.021 34.8518C107.939 35.6023 107.494 36.2929 106.778 36.2929C105.957 36.2929 105.579 35.5054 105.579 33.6982C105.579 31.891 105.957 31.1049 106.778 31.1049C107.599 31.1049 107.977 32.0462 107.977 33.4874V33.8136H106.122H106.12ZM107.431 33.2382C107.417 32.1616 107.266 31.6817 106.776 31.6817C106.385 31.6817 106.127 32.0462 106.12 33.2382H107.431Z" fill="#6D6E71"/>
<path d="M108.266 31.2019H108.794V29.53H109.336V31.2019H110.059V31.7787H109.336V35.2748C109.336 35.5639 109.457 35.7747 109.728 35.7747C109.833 35.7747 109.968 35.7178 110.059 35.6779V36.1977C109.908 36.2547 109.773 36.2931 109.547 36.2931C109.034 36.2931 108.794 35.9855 108.794 35.2164V31.7773H108.266V31.2005V31.2019Z" fill="#6D6E71"/>
<path d="M112.253 32.4692C112.154 32.0363 112.012 31.6817 111.575 31.6817C111.319 31.6817 111.136 31.9409 111.136 32.2769C111.136 33.2952 112.795 33.3521 112.795 34.9087C112.795 35.6962 112.342 36.2929 111.724 36.2929C111.015 36.2929 110.661 35.803 110.473 34.9671L110.971 34.8332C111.084 35.2747 111.287 35.7176 111.688 35.7176C111.982 35.7176 112.253 35.3716 112.253 34.9586C112.253 33.805 110.594 33.7865 110.594 32.3168C110.594 31.6631 111.017 31.1063 111.61 31.1063C112.204 31.1063 112.576 31.5493 112.704 32.2969L112.253 32.4706V32.4692Z" fill="#6D6E71"/>
<path d="M103.995 7.77127C104.061 7.62321 104.149 7.49501 104.261 7.38674C104.374 7.27854 104.503 7.19167 104.653 7.13043C104.802 7.0692 104.96 7.03786 105.126 7.03786C105.294 7.03786 105.453 7.0692 105.6 7.13043C105.748 7.19309 105.877 7.27854 105.988 7.38674C106.099 7.49501 106.187 7.62321 106.253 7.77127C106.319 7.91939 106.352 8.07891 106.352 8.25121C106.352 8.4235 106.319 8.59017 106.253 8.73823C106.187 8.88775 106.099 9.01741 105.988 9.12706C105.877 9.23672 105.748 9.32213 105.6 9.38339C105.451 9.44464 105.294 9.4745 105.126 9.4745C104.96 9.4745 104.801 9.44464 104.653 9.38339C104.503 9.32213 104.374 9.23672 104.261 9.12706C104.149 9.01741 104.061 8.88775 103.995 8.73823C103.929 8.59017 103.896 8.42635 103.896 8.25121C103.896 8.07607 103.929 7.91939 103.995 7.77127ZM104.196 8.66705C104.247 8.79525 104.318 8.9049 104.408 8.99886C104.497 9.09282 104.604 9.16546 104.728 9.21963C104.851 9.27227 104.984 9.29936 105.128 9.29936C105.272 9.29936 105.402 9.27227 105.523 9.21963C105.645 9.16692 105.751 9.09282 105.84 8.99886C105.93 8.9049 106.001 8.79525 106.052 8.66705C106.103 8.54031 106.129 8.40072 106.129 8.25121C106.129 8.10169 106.103 7.96926 106.052 7.84252C106.001 7.71571 105.93 7.60751 105.84 7.51348C105.751 7.42098 105.643 7.34834 105.523 7.29563C105.4 7.24151 105.269 7.21588 105.128 7.21588C104.987 7.21588 104.852 7.24294 104.728 7.29563C104.606 7.34834 104.499 7.42098 104.408 7.51348C104.318 7.60605 104.247 7.71571 104.196 7.84252C104.145 7.96926 104.119 8.10454 104.119 8.25121C104.119 8.39788 104.145 8.54031 104.196 8.66705ZM105.202 7.54203C105.372 7.54203 105.497 7.57619 105.58 7.64314C105.661 7.71001 105.702 7.81259 105.702 7.94933C105.702 8.07745 105.667 8.17148 105.594 8.23128C105.521 8.29107 105.433 8.3267 105.326 8.33808L105.735 8.96754H105.497L105.108 8.35371H104.873V8.96754H104.651V7.54057H105.202V7.54203ZM105.104 8.17572C105.153 8.17572 105.201 8.17433 105.246 8.17002C105.291 8.16718 105.33 8.15725 105.366 8.14294C105.4 8.12732 105.429 8.10454 105.448 8.07322C105.47 8.04183 105.48 7.99773 105.48 7.94071C105.48 7.89231 105.47 7.8553 105.451 7.82682C105.433 7.79835 105.409 7.77696 105.381 7.76134C105.351 7.74564 105.318 7.73571 105.279 7.73002C105.24 7.72425 105.204 7.7214 105.167 7.7214H104.873V8.17572H105.105H105.104Z" fill="#4298B5"/>
<path d="M28.8007 14.9086H26.2153C24.9738 14.9086 24.3531 14.8701 24.0427 14.6993C23.5515 14.4131 23.6284 13.7651 23.6284 13.3834V6.66589C23.6284 5.15919 23.8604 5.12073 26.2139 5.12073H29.0072C33.1958 5.12073 35.394 6.85672 35.394 9.94844C35.394 13.0402 33.0149 14.9086 28.7994 14.9086H28.8007ZM32.5252 9.92851C32.5252 7.52464 31.2325 6.87523 28.5174 6.87523H26.5257V13.1527H28.3879C32.5252 13.1527 32.4996 13.1527 32.4996 9.92712H32.5252V9.92851Z" fill="#4298B5"/>
<path d="M44.8077 11.6077H39.6097C39.6097 12.6003 40.5665 13.2298 42.2223 13.2298H44.5486C46.4621 13.2298 46.5916 13.3252 46.5916 14.9088H42.2992C37.8771 14.9088 36.7139 13.0005 36.7139 10.9598C36.7139 8.91899 37.9027 6.97227 42.3518 6.97227C45.7403 6.97227 47.4203 8.47899 47.4203 10.3687C47.4203 11.7616 47.1882 11.6092 44.8077 11.6092V11.6077ZM42.144 8.61142C39.6867 8.61142 39.6097 8.61142 39.6097 10.2904H44.5743C44.5743 9.27935 43.6175 8.61142 42.144 8.61142Z" fill="#4298B5"/>
<path d="M52.8228 14.9089H48.6855C48.6855 14.5657 48.5815 13.7454 48.9958 13.4392C49.2279 13.2669 49.7191 13.2299 50.7029 13.2299H52.7716C53.0819 13.2299 54.5811 13.2684 54.8658 13.173C55.021 13.1345 54.9954 12.5635 54.9954 12.4865C54.9954 11.9525 53.5731 11.7232 53.0036 11.6463C51.0902 11.3601 48.6071 11.3031 48.5559 9.43325C48.5046 7.96356 50.1334 7.06638 53.4948 7.06638H57.2449C57.2449 7.40959 57.3474 8.21134 56.9601 8.51615C56.728 8.68844 56.2611 8.72545 55.3057 8.72545H53.4435C53.1588 8.72545 51.7621 8.70698 51.5045 8.7824C51.3493 8.83942 51.4005 9.46887 51.4005 9.56429C51.4005 9.71666 51.5813 9.92743 52.2804 10.0798C54.4002 10.537 57.8144 10.366 57.8144 12.599C57.8144 13.8579 56.2625 14.9075 52.8228 14.9075V14.9089Z" fill="#4298B5"/>
<path d="M64.3308 14.909C59.9088 14.909 58.7186 13.0391 58.7186 10.997C58.7186 8.95476 59.96 7.08492 64.2782 7.08492H67.51C67.51 7.42813 67.614 8.26836 67.2253 8.55462C66.9676 8.74545 66.502 8.8024 65.5183 8.8024H64.2255C63.8112 8.8024 62.2337 8.72545 61.9234 8.99324C61.5361 9.27949 61.613 10.6538 61.613 10.9784C61.613 12.3328 62.2081 13.2299 64.2511 13.2299H65.44C67.3791 13.2299 67.5087 13.3253 67.5087 14.909H64.328H64.3308Z" fill="#4298B5"/>
<path d="M74.2308 14.9851C69.8086 14.9851 68.671 13.0197 68.671 10.9776C68.671 8.93542 69.8612 6.9901 74.2563 6.9901C78.6513 6.9901 79.8413 8.95535 79.8413 10.9776C79.8413 12.9998 78.6002 14.9851 74.2308 14.9851ZM76.9459 10.9776C76.9459 9.64175 76.4801 8.70757 74.2563 8.70757C71.5412 8.70757 71.5668 8.72611 71.5668 10.9776C71.5668 12.3519 72.0837 13.2676 74.2308 13.2676C76.9714 13.2676 76.9203 13.2491 76.9203 10.9776H76.9459Z" fill="#4298B5"/>
<path d="M88.4793 13.4587C87.9624 14.3175 87.7295 14.7945 86.36 14.8715C85.9978 14.8899 85.5051 14.8899 84.6779 14.8899L80.1011 7.06592C80.7728 7.06592 82.3249 6.98903 82.971 7.25676C83.4112 7.44756 83.6434 7.79083 84.0062 8.53564L86.1519 12.8093L89.1517 7.06592H92.3851L88.4793 13.4587Z" fill="#4298B5"/>
<path d="M98.1265 18.02H93.0329C93.0329 16.7212 92.8263 16.2826 95.0501 16.2826H98.1536C98.4894 16.2826 100.016 16.3395 100.326 16.1673C100.611 16.0149 100.558 15.1561 100.558 14.9468V13.8787C99.9904 14.6805 98.9552 15.0436 97.5075 15.0436C93.7586 15.0436 93.0081 13.6124 93.0081 11.4364V7.04869C93.5768 7.04869 94.9216 6.97178 95.4129 7.25802C95.7487 7.44887 95.8261 7.83054 95.8261 8.59382V11.5503C95.8261 12.8291 96.1364 13.3831 98.128 13.3831C100.558 13.3831 100.533 13.3632 100.533 11.4748V7.04869C103.197 7.04869 103.404 7.12416 103.404 8.59382V14.8528C103.404 16.398 102.524 18.0215 98.128 18.0215L98.1265 18.02Z" fill="#4298B5"/>
<path d="M14.0607 4.24008L9.82135 -0.000384194L5.58206 4.24008L9.82135 8.48051L14.0607 4.24008Z" fill="#4298B5"/>
<path d="M15.1598 5.33819L10.92 9.57918L9.82085 10.6786L8.72174 9.57918L4.48329 5.33819L0 9.82273L9.82085 19.6462L19.6416 9.82273L15.1598 5.33819Z" fill="#87D3E1"/>
</g>
</g>
</g>
<defs>
<clipPath id="clip0_0_47">
<rect width="118.156" height="48.5665" fill="white" transform="scale(1.00714)"/>
</clipPath>
<clipPath id="clip1_0_47">
<rect width="118.156" height="48.5672" fill="white" transform="translate(0 -0.000522504) scale(1.00714)"/>
</clipPath>
</defs>
</svg>
