<svg width="72" height="72" viewBox="0 0 72 72" fill="none" xmlns="http://www.w3.org/2000/svg">
<path d="M0 35.9999C0 55.882 16.1179 71.9998 35.9999 71.9998C55.882 71.9998 71.9998 55.882 71.9998 35.9999C71.9998 16.1179 55.882 0 35.9999 0C16.1179 0 0 16.1179 0 35.9999Z" fill="#4298B5" fill-opacity="0.7"/>
<mask id="mask0_68212_2957" style="mask-type:luminance" maskUnits="userSpaceOnUse" x="8" y="8" width="56" height="56">
<path d="M36.0007 63.4276C51.1495 63.4276 63.4291 51.148 63.4291 35.9992C63.4291 20.8505 51.1495 8.5709 36.0007 8.5709C20.852 8.5709 8.57238 20.8512 8.57238 35.9992C8.57238 51.148 20.8527 63.4276 36.0007 63.4276Z" fill="white"/>
</mask>
<g mask="url(#mask0_68212_2957)">
<path d="M36.0007 63.4276C51.1495 63.4276 63.4291 51.148 63.4291 35.9992C63.4291 20.8505 51.1495 8.5709 36.0007 8.5709C20.852 8.5709 8.57238 20.8512 8.57238 35.9992C8.57238 51.148 20.8527 63.4276 36.0007 63.4276Z" stroke="white" stroke-width="2.84583"/>
</g>
<mask id="mask1_68212_2957" style="mask-type:luminance" maskUnits="userSpaceOnUse" x="28" y="29" width="13" height="14">
<path d="M40.2365 42.4727L28.3507 39.7352C28.2798 39.7189 28.2146 39.6839 28.1618 39.6338C28.109 39.5837 28.0705 39.5204 28.0505 39.4505C28.0304 39.3805 28.0294 39.3064 28.0477 39.236C28.0659 39.1655 28.1027 39.1012 28.1542 39.0498L37.3032 29.9001C37.3547 29.8484 37.4191 29.8115 37.4897 29.7932C37.5603 29.7748 37.6345 29.7758 37.7046 29.796C37.7747 29.8161 37.8381 29.8547 37.8882 29.9077C37.9383 29.9607 37.9732 30.0262 37.9894 30.0974L40.7261 41.9838C40.7417 42.0512 40.7398 42.1214 40.7208 42.1879C40.7018 42.2544 40.6661 42.3149 40.6172 42.3638C40.5683 42.4127 40.5078 42.4484 40.4413 42.4674C40.3748 42.4865 40.3046 42.4883 40.2372 42.4727H40.2365Z" fill="white"/>
</mask>
<g mask="url(#mask1_68212_2957)">
</g>
<path d="M32.3841 29.4898V43.6578L43.5162 36.5738L32.3841 29.4898Z" fill="white"/>
</svg>
