<svg width="176" height="24" viewBox="0 0 176 24" fill="none" xmlns="http://www.w3.org/2000/svg">
<g clip-path="url(#clip0_0_78)">
<path d="M18.8916 1H22.5542L14.5542 10.3378L24 23H16.5783L10.7952 15.3244L4.14458 23H0.481928L9.06024 13.0267L0 1H7.61446L12.8675 8.04L18.8916 1ZM17.5904 20.7511H19.6145L6.50602 3.10222H4.28916L17.5904 20.7511Z" fill="#203662"/>
</g>
<path d="M57 3C57.5304 3 58.0391 3.21071 58.4142 3.58579C58.7893 3.96086 59 4.46957 59 5V19C59 19.5304 58.7893 20.0391 58.4142 20.4142C58.0391 20.7893 57.5304 21 57 21H43C42.4696 21 41.9609 20.7893 41.5858 20.4142C41.2107 20.0391 41 19.5304 41 19V5C41 4.46957 41.2107 3.96086 41.5858 3.58579C41.9609 3.21071 42.4696 3 43 3H57ZM56.5 18.5V13.2C56.5 12.3354 56.1565 11.5062 55.5452 10.8948C54.9338 10.2835 54.1046 9.94 53.24 9.94C52.39 9.94 51.4 10.46 50.92 11.24V10.13H48.13V18.5H50.92V13.57C50.92 12.8 51.54 12.17 52.31 12.17C52.6813 12.17 53.0374 12.3175 53.2999 12.5801C53.5625 12.8426 53.71 13.1987 53.71 13.57V18.5H56.5ZM44.88 8.56C45.3256 8.56 45.7529 8.383 46.0679 8.06794C46.383 7.75288 46.56 7.32556 46.56 6.88C46.56 5.95 45.81 5.19 44.88 5.19C44.4318 5.19 44.0019 5.36805 43.685 5.68499C43.3681 6.00193 43.19 6.43178 43.19 6.88C43.19 7.81 43.95 8.56 44.88 8.56ZM46.27 18.5V10.13H43.5V18.5H46.27Z" fill="#203662"/>
<path d="M83.8 2H92.2C95.4 2 98 4.6 98 7.8V16.2C98 17.7383 97.3889 19.2135 96.3012 20.3012C95.2135 21.3889 93.7383 22 92.2 22H83.8C80.6 22 78 19.4 78 16.2V7.8C78 6.26174 78.6111 4.78649 79.6988 3.69878C80.7865 2.61107 82.2617 2 83.8 2ZM83.6 4C82.6452 4 81.7295 4.37928 81.0544 5.05442C80.3793 5.72955 80 6.64522 80 7.6V16.4C80 18.39 81.61 20 83.6 20H92.4C93.3548 20 94.2705 19.6207 94.9456 18.9456C95.6207 18.2705 96 17.3548 96 16.4V7.6C96 5.61 94.39 4 92.4 4H83.6ZM93.25 5.5C93.5815 5.5 93.8995 5.6317 94.1339 5.86612C94.3683 6.10054 94.5 6.41848 94.5 6.75C94.5 7.08152 94.3683 7.39946 94.1339 7.63388C93.8995 7.8683 93.5815 8 93.25 8C92.9185 8 92.6005 7.8683 92.3661 7.63388C92.1317 7.39946 92 7.08152 92 6.75C92 6.41848 92.1317 6.10054 92.3661 5.86612C92.6005 5.6317 92.9185 5.5 93.25 5.5ZM88 7C89.3261 7 90.5979 7.52678 91.5355 8.46447C92.4732 9.40215 93 10.6739 93 12C93 13.3261 92.4732 14.5979 91.5355 15.5355C90.5979 16.4732 89.3261 17 88 17C86.6739 17 85.4021 16.4732 84.4645 15.5355C83.5268 14.5979 83 13.3261 83 12C83 10.6739 83.5268 9.40215 84.4645 8.46447C85.4021 7.52678 86.6739 7 88 7ZM88 9C87.2044 9 86.4413 9.31607 85.8787 9.87868C85.3161 10.4413 85 11.2044 85 12C85 12.7956 85.3161 13.5587 85.8787 14.1213C86.4413 14.6839 87.2044 15 88 15C88.7956 15 89.5587 14.6839 90.1213 14.1213C90.6839 13.5587 91 12.7956 91 12C91 11.2044 90.6839 10.4413 90.1213 9.87868C89.5587 9.31607 88.7956 9 88 9Z" fill="#203662"/>
<path d="M126 2.04004C120.5 2.04004 116 6.53004 116 12.06C116 17.06 119.66 21.21 124.44 21.96V14.96H121.9V12.06H124.44V9.85004C124.44 7.34004 125.93 5.96004 128.22 5.96004C129.31 5.96004 130.45 6.15004 130.45 6.15004V8.62004H129.19C127.95 8.62004 127.56 9.39004 127.56 10.18V12.06H130.34L129.89 14.96H127.56V21.96C129.916 21.5879 132.062 20.3856 133.61 18.5701C135.158 16.7546 136.005 14.4457 136 12.06C136 6.53004 131.5 2.04004 126 2.04004Z" fill="#203662"/>
<path d="M162 15L167.19 12L162 9V15ZM173.56 7.17C173.69 7.64 173.78 8.27 173.84 9.07C173.91 9.87 173.94 10.56 173.94 11.16L174 12C174 14.19 173.84 15.8 173.56 16.83C173.31 17.73 172.73 18.31 171.83 18.56C171.36 18.69 170.5 18.78 169.18 18.84C167.88 18.91 166.69 18.94 165.59 18.94L164 19C159.81 19 157.2 18.84 156.17 18.56C155.27 18.31 154.69 17.73 154.44 16.83C154.31 16.36 154.22 15.73 154.16 14.93C154.09 14.13 154.06 13.44 154.06 12.84L154 12C154 9.81 154.16 8.2 154.44 7.17C154.69 6.27 155.27 5.69 156.17 5.44C156.64 5.31 157.5 5.22 158.82 5.16C160.12 5.09 161.31 5.06 162.41 5.06L164 5C168.19 5 170.8 5.16 171.83 5.44C172.73 5.69 173.31 6.27 173.56 7.17Z" fill="#203662"/>
<defs>
<clipPath id="clip0_0_78">
<rect width="24" height="22" fill="white" transform="translate(0 1)"/>
</clipPath>
</defs>
</svg>
