<svg width="49" height="49" viewBox="0 0 49 49" fill="none" xmlns="http://www.w3.org/2000/svg">
<g clip-path="url(#clip0_0_143)">
<g clip-path="url(#clip1_0_143)">
<path d="M25.0192 5.31298H23.9797C13.6703 5.31298 5.31285 13.6704 5.31285 23.9798V25.0193C5.31285 35.3287 13.6703 43.6862 23.9797 43.6862H25.0192C35.3286 43.6862 43.686 35.3287 43.686 25.0193V23.9798C43.686 13.6704 35.3286 5.31298 25.0192 5.31298Z" fill="#E4F4F7"/>
<path d="M20.7482 32.5611L14.4553 24.5532C14.1974 24.2281 14.007 23.8549 13.8951 23.4554C13.7832 23.0559 13.7521 22.6381 13.8036 22.2264C13.8535 21.8141 13.9849 21.4159 14.19 21.0548C14.3951 20.6937 14.6699 20.3769 14.9985 20.1229C15.6606 19.6069 16.5001 19.3741 17.3334 19.4755C18.1666 19.5769 18.9258 20.0042 19.4449 20.664L23.0022 25.1951L32.4592 10.7009C33.4098 9.24001 35.3782 8.82772 36.8447 9.77481C37.1928 10.0005 37.493 10.2925 37.7281 10.6342C37.9633 10.9759 38.1288 11.3606 38.2152 11.7664C38.3016 12.1721 38.3072 12.5909 38.2317 12.9987C38.1561 13.4066 38.0009 13.7956 37.775 14.1435L25.9002 32.3378C25.6233 32.7586 25.2507 33.1078 24.813 33.3569C24.3753 33.6061 23.8848 33.7481 23.3816 33.7714H23.2458C22.7646 33.7738 22.2892 33.666 21.8561 33.456C21.423 33.2461 21.0438 32.9397 20.7475 32.5604L20.7482 32.5611Z" fill="#87D3E1"/>
<path d="M27.4119 30.9189C26.9891 31.5384 26.2863 31.9227 25.5128 31.9563H25.4078C25.0495 31.9581 24.6953 31.8805 24.3705 31.7291C24.0458 31.5777 23.7586 31.3562 23.5297 31.0806L17.012 23.1055C16.1965 22.1087 16.3792 20.6737 17.4194 19.8925C18.4603 19.1176 19.9583 19.2863 20.7738 20.2831L25.2314 25.7389L33.2401 13.9447L35.7083 10.3075C36.4251 9.25047 37.9021 8.94667 39.0122 9.63407C40.1168 10.3208 40.4332 11.7425 39.7157 12.7995L37.2973 16.3295L27.4119 30.9189Z" fill="white" stroke="#096482" stroke-width="0.588014" stroke-linecap="round" stroke-linejoin="round"/>
</g>
</g>
<defs>
<clipPath id="clip0_0_143">
<rect width="48.4247" height="48.4247" fill="white" transform="scale(1.01188)"/>
</clipPath>
<clipPath id="clip1_0_143">
<rect width="48.4247" height="48.4247" fill="white" transform="scale(1.01188)"/>
</clipPath>
</defs>
</svg>
