<svg width="50" height="50" viewBox="0 0 50 50" fill="none" xmlns="http://www.w3.org/2000/svg">
<g clip-path="url(#clip0_0_155)">
<g clip-path="url(#clip1_0_155)">
<path d="M26.0599 5.42155H23.9404C13.7128 5.42155 5.42167 13.7127 5.42167 23.9403V26.0597C5.42167 36.2874 13.7128 44.5785 23.9404 44.5785H26.0599C36.2875 44.5785 44.5786 36.2874 44.5786 26.0597V23.9403C44.5786 13.7127 36.2875 5.42155 26.0599 5.42155Z" fill="#E4F4F7"/>
<path d="M30.576 19.4396C31.3468 18.5924 31.2281 17.3264 30.3093 16.6139C29.3906 15.9021 28.0191 16.0125 27.2475 16.8604L22.4114 22.1813L17.5718 16.8632C16.801 16.016 15.4295 15.9049 14.5107 16.6174C13.592 17.3257 13.4725 18.5917 14.2441 19.4396L19.5746 25.3007L14.2441 31.1625C13.4732 32.0104 13.5913 33.2764 14.5107 33.9882C15.4295 34.7 16.8003 34.5903 17.5718 33.7424L22.408 28.4215L27.2441 33.7424C28.0156 34.5896 29.3871 34.7007 30.3059 33.9882C31.2246 33.2764 31.3441 32.0104 30.5725 31.1625L25.242 25.3014H25.2455L30.576 19.4396Z" fill="#87D3E1"/>
<path d="M33.9486 18.6458C34.1317 18.4355 34.2704 18.1903 34.3563 17.9251C34.4423 17.6598 34.4738 17.3799 34.4489 17.1022C34.424 16.8245 34.3432 16.5546 34.2114 16.3089C34.0796 16.0632 33.8995 15.8466 33.6819 15.6722C32.7631 14.9264 31.3916 15.0416 30.6201 15.9347L25.7833 21.5354L20.9458 15.9347C20.175 15.0416 18.8027 14.9264 17.8833 15.6757C17.6656 15.8501 17.4855 16.0668 17.3537 16.3126C17.2219 16.5584 17.1412 16.8283 17.1163 17.1061C17.0915 17.384 17.1231 17.6639 17.2091 17.9292C17.2952 18.1945 17.4341 18.4397 17.6173 18.65L22.9493 24.8194L17.6173 30.9896C17.4342 31.1999 17.2955 31.445 17.2096 31.7103C17.1236 31.9756 17.0921 32.2555 17.117 32.5332C17.1419 32.8109 17.2227 33.0808 17.3545 33.3265C17.4863 33.5722 17.6664 33.7888 17.884 33.9632C18.8027 34.7132 20.1743 34.5972 20.9465 33.7048L25.7833 28.1035L30.6201 33.7048C31.3916 34.5972 32.7631 34.7132 33.6826 33.9632C33.9001 33.7887 34.0802 33.5721 34.2119 33.3264C34.3437 33.0806 34.4244 32.8108 34.4492 32.533C34.474 32.2553 34.4425 31.9754 34.3565 31.7102C34.2704 31.445 34.1317 31.1998 33.9486 30.9896L28.618 24.8194V24.816L33.9493 18.6465L33.9486 18.6458Z" fill="white" stroke="#096482" stroke-width="0.553425" stroke-linecap="round" stroke-linejoin="round"/>
</g>
</g>
<defs>
<clipPath id="clip0_0_155">
<rect width="49.8082" height="49.8082" fill="white" transform="scale(1.00385)"/>
</clipPath>
<clipPath id="clip1_0_155">
<rect width="49.8082" height="49.8082" fill="white" transform="scale(1.00385)"/>
</clipPath>
</defs>
</svg>
