<svg width="51" height="42" viewBox="0 0 51 42" fill="none" xmlns="http://www.w3.org/2000/svg">
<path opacity="0.6" fill-rule="evenodd" clip-rule="evenodd" d="M0 22.7431H12.2086C12.2086 28.0526 10.0973 32.854 6.70388 36.3264C6.69113 36.3394 6.66561 36.3655 6.65286 36.3785V41.662C10.5693 40.9844 14.0775 39.0691 16.7629 36.3264C20.1691 32.8475 22.2676 28.0526 22.2676 22.7431V0H0V22.7431Z" fill="#155267"/>
<path opacity="0.6" fill-rule="evenodd" clip-rule="evenodd" d="M28.7323 0V22.7431H40.9409C40.9409 28.0526 38.8296 32.854 35.4362 36.3264L35.3852 36.3785V41.662C39.3016 40.9844 42.8098 39.0691 45.4952 36.3264C48.9014 32.854 50.9999 28.0591 50.9999 22.7431V0H28.7323Z" fill="#155267"/>
</svg>
