<svg width="20" height="20" viewBox="0 0 20 20" fill="none" xmlns="http://www.w3.org/2000/svg">
<path fill-rule="evenodd" clip-rule="evenodd" d="M16.668 9.99991C16.668 13.1063 14.5434 15.7165 11.668 16.4565V18.1665C15.4717 17.3944 18.3346 14.0315 18.3346 9.99991C18.3346 5.96829 15.4717 2.60537 11.668 1.83325V3.54325C14.5434 4.28333 16.668 6.89349 16.668 9.99991ZM15.0013 9.99991C15.0013 7.82286 13.61 5.97079 11.668 5.2844V7.1125C12.6643 7.68884 13.3346 8.76608 13.3346 9.99991C13.3346 11.2337 12.6643 12.3109 11.668 12.8872V14.7154C13.61 14.029 15.0013 12.1769 15.0013 9.99991ZM5.48946 6.66988H3.33464C2.41416 6.66988 1.66797 7.41607 1.66797 8.33658V11.6699C1.66797 12.5903 2.41416 13.3366 3.33464 13.3366H5.48946L8.57872 17.2592C9.10372 17.7841 10.0013 17.4123 10.0013 16.6699V3.33654C10.0013 2.59412 9.10372 2.22232 8.57872 2.74729L5.48946 6.66988Z" fill="white"/>
</svg>
