<svg width="20" height="20" viewBox="0 0 20 20" fill="none" xmlns="http://www.w3.org/2000/svg">
<path fill-rule="evenodd" clip-rule="evenodd" d="M9.16537 1.66699C8.24489 1.66699 7.4987 2.41318 7.4987 3.33366V4.72835C7.21353 4.86382 6.9411 5.02175 6.68368 5.19984L5.46822 4.4981C4.67972 4.04285 3.65878 4.31415 3.19903 5.11047L2.36395 6.55686C1.90576 7.35046 2.17474 8.3701 2.96822 8.82822L4.18404 9.53017C4.17167 9.68526 4.16537 9.84206 4.16537 10.0003C4.16537 10.1586 4.17167 10.3154 4.18404 10.4705L2.96822 11.1724C2.17474 11.6306 1.90576 12.6502 2.36395 13.4438L3.19903 14.8902C3.65878 15.6865 4.67972 15.9578 5.46822 15.5026L6.68369 14.8008C6.9411 14.9789 7.21353 15.1368 7.4987 15.2723V16.667C7.4987 17.5875 8.24489 18.3337 9.16537 18.3337H10.832C11.7525 18.3337 12.4987 17.5875 12.4987 16.667V15.2723C12.7838 15.1369 13.0561 14.979 13.3134 14.801L14.5285 15.5026C15.317 15.9578 16.338 15.6865 16.7977 14.8902L17.6328 13.4438C18.091 12.6502 17.822 11.6306 17.0285 11.1724L15.8133 10.4708C15.8257 10.3156 15.832 10.1587 15.832 10.0003C15.832 9.84193 15.8257 9.68501 15.8133 9.52981L17.0285 8.82822C17.822 8.3701 18.091 7.35046 17.6328 6.55686L16.7977 5.11047C16.338 4.31415 15.317 4.04285 14.5285 4.4981L13.3134 5.19963C13.0561 5.02162 12.7838 4.86377 12.4987 4.72835V3.33366C12.4987 2.41318 11.7525 1.66699 10.832 1.66699H9.16537ZM12.4987 10.0003C12.4987 11.381 11.3794 12.5003 9.99869 12.5003C8.61799 12.5003 7.4987 11.381 7.4987 10.0003C7.4987 8.61961 8.61799 7.50033 9.99869 7.50033C11.3794 7.50033 12.4987 8.61961 12.4987 10.0003Z" fill="white"/>
</svg>
